<svg xmlns="http://www.w3.org/2000/svg" width="78.188" height="131.162" viewBox="0 0 78.188 131.162"><defs><style>.a{fill:#515940;}.b{fill:#829161;}</style></defs><g transform="translate(-1216.996 -284)"><g transform="translate(1216.996 284)"><g transform="translate(21.806 127.816)"><path class="a" d="M0,0H35.131a0,0,0,0,1,0,0V0a3.346,3.346,0,0,1-3.346,3.346H3.346A3.346,3.346,0,0,1,0,0V0A0,0,0,0,1,0,0Z"/></g><g transform="translate(11.559)"><g transform="translate(35.256)"><path class="b" d="M1403.561,310.731s3.639-17.816,4.642-20.953c.954-2.982,4.743-6.984,13.307-5.432a1.165,1.165,0,0,1,.873,1.57l-1.507,3.862-3.563-.52a3.027,3.027,0,0,0-3.289,1.983l-1.946,5.491a1.98,1.98,0,0,0,1.41,2.588l2.621.621-5.521,11.167Z" transform="translate(-1403.561 -284)"/></g><path class="b" d="M1281.963,310.731s-3.638-17.816-4.642-20.953c-.954-2.982-4.743-6.984-13.307-5.432a1.165,1.165,0,0,0-.873,1.57l1.507,3.862,3.563-.52a3.026,3.026,0,0,1,3.289,1.983l1.946,5.491a1.98,1.98,0,0,1-1.41,2.588l-2.621.621,5.521,11.167Z" transform="translate(-1263.061 -284)"/><g transform="translate(26.021 11.382)"><rect class="b" width="3.011" height="5.771" rx="1.506"/></g><g transform="translate(24.581 15.732)"><rect class="b" width="5.892" height="11.292" rx="2.946"/></g><g transform="translate(19.034 8.203)"><rect class="b" width="16.896" height="3.346" rx="1.673"/></g><g transform="translate(23.532 25.173)"><rect class="a" width="8.026" height="1.589" rx="0.795"/></g><g transform="translate(24.81 18.411)"><circle class="a" cx="2.716" cy="2.716" r="2.716"/></g></g><g transform="translate(1.146 26.48)"><path class="b" d="M1297.647,404.2c-1.038-8.2-13.156-14.68-21.507-14.68h-32.5c-8.351,0-20.928,6.476-22.006,14.68h-.076v1.129h0v69.634h0c0,8.731,14.606,15.809,23.337,15.809h29.987c8.731,0,22.835-7.078,22.835-15.809h.042V404.2Z" transform="translate(-1221.561 -389.525)"/></g><g transform="translate(0 75.956)"><path class="a" d="M1217.56,586.692s35.465,12.045,77.12,0c0,0,.753.753.418,1.422s-34.462,12.764-77.873.385C1216.557,587.662,1217.56,586.692,1217.56,586.692Z" transform="translate(-1216.996 -586.692)"/></g></g></g></svg>