<svg xmlns="http://www.w3.org/2000/svg" width="78.668" height="131.967" viewBox="0 0 78.668 131.967"><defs><style>.a{fill:#9e4b25;}.b{fill:#ff793b;}</style></defs><g transform="translate(-1795.528 -284)"><g transform="translate(1795.528 284)"><g transform="translate(21.94 128.599)"><path class="a" d="M0,0H35.346a0,0,0,0,1,0,0V0A3.366,3.366,0,0,1,31.98,3.366H3.366A3.366,3.366,0,0,1,0,0V0A0,0,0,0,1,0,0Z"/></g><g transform="translate(11.63)"><g transform="translate(35.473)"><path class="b" d="M1982.094,310.895s3.661-17.926,4.671-21.082c.96-3,4.772-7.027,13.388-5.465a1.172,1.172,0,0,1,.878,1.58l-1.516,3.885-3.586-.523a3.044,3.044,0,0,0-3.309,2l-1.958,5.524a1.992,1.992,0,0,0,1.419,2.6l2.637.625-5.554,11.235Z" transform="translate(-1982.094 -284)"/></g><path class="b" d="M1860.611,310.895s-3.661-17.926-4.671-21.082c-.96-3-4.772-7.027-13.388-5.465a1.172,1.172,0,0,0-.878,1.58l1.516,3.885,3.585-.523a3.045,3.045,0,0,1,3.309,2l1.958,5.524a1.992,1.992,0,0,1-1.419,2.6l-2.637.625,5.555,11.235Z" transform="translate(-1841.594 -284)"/><g transform="translate(26.18 11.452)"><rect class="b" width="3.03" height="5.807" rx="1.515"/></g><g transform="translate(24.731 15.828)"><rect class="b" width="5.928" height="11.361" rx="2.964"/></g><g transform="translate(19.15 8.254)"><rect class="b" width="17" height="3.366" rx="1.683"/></g><g transform="translate(23.676 25.327)"><rect class="a" width="8.075" height="1.599" rx="0.799"/></g><g transform="translate(24.963 18.524)"><circle class="a" cx="2.732" cy="2.732" r="2.732"/></g></g><g transform="translate(1.153 26.642)"><path class="b" d="M1876.646,404.295c-1.045-8.254-13.237-14.77-21.639-14.77h-32.7c-8.4,0-21.056,6.516-22.141,14.77h-.076v1.136h0v70.061h0c0,8.785,14.7,15.906,23.48,15.906h30.17c8.785,0,22.975-7.121,22.975-15.906h.042v-71.2Z" transform="translate(-1800.094 -389.525)"/></g><g transform="translate(0 76.422)"><path class="a" d="M1796.1,586.692s35.683,12.119,77.593,0c0,0,.757.757.421,1.431s-34.673,12.842-78.351.387C1795.086,587.668,1796.1,586.692,1796.1,586.692Z" transform="translate(-1795.528 -586.692)"/></g></g></g></svg>