<svg xmlns="http://www.w3.org/2000/svg" width="78.431" height="131.568" viewBox="0 0 78.431 131.568"><defs><style>.a{fill:#424c5c;}.b{fill:#6b7b95;}</style></defs><g transform="translate(-1795.528 -1115.043)"><g transform="translate(1795.528 1115.043)"><g transform="translate(21.874 128.212)"><path class="a" d="M0,0H35.24a0,0,0,0,1,0,0V0a3.356,3.356,0,0,1-3.356,3.356H3.356A3.356,3.356,0,0,1,0,0V0A0,0,0,0,1,0,0Z"/></g><g transform="translate(11.595)"><g transform="translate(35.366)"><path class="b" d="M1982.094,1141.856s3.65-17.872,4.656-21.018c.957-2.991,4.758-7.006,13.348-5.449a1.169,1.169,0,0,1,.875,1.575l-1.512,3.874-3.575-.521a3.035,3.035,0,0,0-3.3,1.99l-1.952,5.508a1.986,1.986,0,0,0,1.414,2.6l2.629.623-5.538,11.2Z" transform="translate(-1982.094 -1115.043)"/></g><path class="b" d="M1860.554,1141.856s-3.65-17.872-4.657-21.018c-.957-2.991-4.758-7.006-13.348-5.449a1.169,1.169,0,0,0-.875,1.575l1.511,3.874,3.575-.521a3.035,3.035,0,0,1,3.3,1.99l1.952,5.508a1.986,1.986,0,0,1-1.414,2.6l-2.629.623,5.538,11.2Z" transform="translate(-1841.594 -1115.043)"/><g transform="translate(26.101 11.417)"><rect class="b" width="3.021" height="5.789" rx="1.51"/></g><g transform="translate(24.657 15.78)"><rect class="b" width="5.91" height="11.327" rx="2.955"/></g><g transform="translate(19.093 8.229)"><rect class="b" width="16.949" height="3.356" rx="1.678"/></g><g transform="translate(23.605 25.251)"><rect class="a" width="8.051" height="1.594" rx="0.797"/></g><g transform="translate(24.887 18.468)"><circle class="a" cx="2.724" cy="2.724" r="2.724"/></g></g><g transform="translate(1.149 26.562)"><path class="b" d="M1876.415,1235.293c-1.042-8.229-13.2-14.725-21.574-14.725h-32.6c-8.377,0-20.993,6.5-22.075,14.725h-.076v1.133h0v69.85h0c0,8.758,14.651,15.858,23.409,15.858h30.08c8.758,0,22.906-7.1,22.906-15.858h.042v-70.983Z" transform="translate(-1800.094 -1220.568)"/></g><g transform="translate(0 76.192)"><path class="a" d="M1796.094,1417.735s35.575,12.082,77.36,0c0,0,.755.755.42,1.426s-34.568,12.8-78.115.386C1795.087,1418.708,1796.094,1417.735,1796.094,1417.735Z" transform="translate(-1795.528 -1417.735)"/></g></g></g></svg>