<svg xmlns="http://www.w3.org/2000/svg" width="78.409" height="131.529" viewBox="0 0 78.409 131.529"><defs><style>.a{fill:#0484a3;}.b{fill:#58b6f5;}</style></defs><g transform="translate(-65.47 -274)"><g transform="translate(65.47 274)"><g transform="translate(21.867 128.174)"><path class="a" d="M0,0H35.229a0,0,0,0,1,0,0V0a3.355,3.355,0,0,1-3.355,3.355H3.355A3.355,3.355,0,0,1,0,0V0A0,0,0,0,1,0,0Z" transform="translate(0 0)"/></g><g transform="translate(11.592)"><g transform="translate(35.355)"><path class="b" d="M252.036,300.806s3.649-17.866,4.655-21.012c.957-2.99,4.756-7,13.344-5.447a1.168,1.168,0,0,1,.875,1.575l-1.511,3.872-3.573-.521a3.035,3.035,0,0,0-3.3,1.989l-1.951,5.506a1.985,1.985,0,0,0,1.414,2.595l2.628.623-5.536,11.2Z" transform="translate(-252.036 -274)"/></g><path class="b" d="M130.491,300.806s-3.649-17.866-4.655-21.012c-.957-2.99-4.756-7-13.344-5.447a1.169,1.169,0,0,0-.875,1.575l1.511,3.872,3.574-.521a3.035,3.035,0,0,1,3.3,1.989l1.951,5.506a1.985,1.985,0,0,1-1.414,2.595l-2.628.623,5.536,11.2Z" transform="translate(-111.536 -274)"/><g transform="translate(26.094 11.414)"><rect class="b" width="3.02" height="5.788" rx="1.51"/></g><g transform="translate(24.649 15.776)"><rect class="b" width="5.908" height="11.324" rx="2.954"/></g><g transform="translate(19.087 8.226)"><rect class="b" width="16.944" height="3.355" rx="1.678"/></g><g transform="translate(23.598 25.244)"><rect class="a" width="8.048" height="1.594" rx="0.797"/></g><g transform="translate(24.88 18.462)"><circle class="a" cx="2.723" cy="2.723" r="2.723"/></g></g><g transform="translate(1.149 26.554)"><path class="b" d="M146.335,394.246c-1.041-8.227-13.193-14.721-21.568-14.721H92.18c-8.375,0-20.987,6.494-22.068,14.721h-.076v1.132h0v69.83h0c0,8.755,14.647,15.853,23.4,15.853h30.071c8.755,0,22.9-7.1,22.9-15.853h.042V394.246Z" transform="translate(-70.036 -379.525)"/></g><g transform="translate(0 76.169)"><path class="a" d="M66.036,576.692s35.565,12.079,77.337,0c0,0,.755.755.419,1.426s-34.558,12.8-78.092.386C65.03,577.665,66.036,576.692,66.036,576.692Z" transform="translate(-65.47 -576.692)"/></g></g></g></svg>